<svg id="visual" viewBox="0 0 900 600" width="900" height="600" xmlns="http://www.w3.org/2000/svg" xmlns:xlink="http://www.w3.org/1999/xlink" version="1.1"><path d="M0 67L10.7 66C21.3 65 42.7 63 64.2 59C85.7 55 107.3 49 128.8 51C150.3 53 171.7 63 193 65C214.3 67 235.7 61 257 58C278.3 55 299.7 55 321.2 57C342.7 59 364.3 63 385.8 57C407.3 51 428.7 35 450 34C471.3 33 492.7 47 514.2 48C535.7 49 557.3 37 578.8 31C600.3 25 621.7 25 643 29C664.3 33 685.7 41 707 48C728.3 55 749.7 61 771.2 65C792.7 69 814.3 71 835.8 68C857.3 65 878.7 57 889.3 53L900 49L900 0L889.3 0C878.7 0 857.3 0 835.8 0C814.3 0 792.7 0 771.2 0C749.7 0 728.3 0 707 0C685.7 0 664.3 0 643 0C621.7 0 600.3 0 578.8 0C557.3 0 535.7 0 514.2 0C492.7 0 471.3 0 450 0C428.7 0 407.3 0 385.8 0C364.3 0 342.7 0 321.2 0C299.7 0 278.3 0 257 0C235.7 0 214.3 0 193 0C171.7 0 150.3 0 128.8 0C107.3 0 85.7 0 64.2 0C42.7 0 21.3 0 10.7 0L0 0Z" fill="#0066ff"></path><path d="M0 151L10.7 139C21.3 127 42.7 103 64.2 98C85.7 93 107.3 107 128.8 111C150.3 115 171.7 109 193 109C214.3 109 235.7 115 257 111C278.3 107 299.7 93 321.2 97C342.7 101 364.3 123 385.8 123C407.3 123 428.7 101 450 98C471.3 95 492.7 111 514.2 119C535.7 127 557.3 127 578.8 114C600.3 101 621.7 75 643 68C664.3 61 685.7 73 707 85C728.3 97 749.7 109 771.2 112C792.7 115 814.3 109 835.8 111C857.3 113 878.7 123 889.3 128L900 133L900 47L889.3 51C878.7 55 857.3 63 835.8 66C814.3 69 792.7 67 771.2 63C749.7 59 728.3 53 707 46C685.7 39 664.3 31 643 27C621.7 23 600.3 23 578.8 29C557.3 35 535.7 47 514.2 46C492.7 45 471.3 31 450 32C428.7 33 407.3 49 385.8 55C364.3 61 342.7 57 321.2 55C299.7 53 278.3 53 257 56C235.7 59 214.3 65 193 63C171.7 61 150.3 51 128.8 49C107.3 47 85.7 53 64.2 57C42.7 61 21.3 63 10.7 64L0 65Z" fill="#8857ef"></path><path d="M0 343L10.7 311C21.3 279 42.7 215 64.2 203C85.7 191 107.3 231 128.8 250C150.3 269 171.7 267 193 258C214.3 249 235.7 233 257 234C278.3 235 299.7 253 321.2 250C342.7 247 364.3 223 385.8 203C407.3 183 428.7 167 450 183C471.3 199 492.7 247 514.2 271C535.7 295 557.3 295 578.8 280C600.3 265 621.7 235 643 210C664.3 185 685.7 165 707 180C728.3 195 749.7 245 771.2 270C792.7 295 814.3 295 835.8 290C857.3 285 878.7 275 889.3 270L900 265L900 131L889.3 126C878.7 121 857.3 111 835.8 109C814.3 107 792.7 113 771.2 110C749.7 107 728.3 95 707 83C685.7 71 664.3 59 643 66C621.7 73 600.3 99 578.8 112C557.3 125 535.7 125 514.2 117C492.7 109 471.3 93 450 96C428.7 99 407.3 121 385.8 121C364.3 121 342.7 99 321.2 95C299.7 91 278.3 105 257 109C235.7 113 214.3 107 193 107C171.7 107 150.3 113 128.8 109C107.3 105 85.7 91 64.2 96C42.7 101 21.3 125 10.7 137L0 149Z" fill="#bd45d8"></path><path d="M0 367L10.7 339C21.3 311 42.7 255 64.2 244C85.7 233 107.3 267 128.8 282C150.3 297 171.7 293 193 282C214.3 271 235.7 253 257 258C278.3 263 299.7 291 321.2 293C342.7 295 364.3 271 385.8 245C407.3 219 428.7 191 450 202C471.3 213 492.7 263 514.2 289C535.7 315 557.3 317 578.8 303C600.3 289 621.7 259 643 238C664.3 217 685.7 205 707 221C728.3 237 749.7 281 771.2 305C792.7 329 814.3 333 835.8 331C857.3 329 878.7 321 889.3 317L900 313L900 263L889.3 268C878.7 273 857.3 283 835.8 288C814.3 293 792.7 293 771.2 268C749.7 243 728.3 193 707 178C685.7 163 664.3 183 643 208C621.7 233 600.3 263 578.8 278C557.3 293 535.7 293 514.2 269C492.7 245 471.3 197 450 181C428.7 165 407.3 181 385.8 201C364.3 221 342.7 245 321.2 248C299.7 251 278.3 233 257 232C235.7 231 214.3 247 193 256C171.7 265 150.3 267 128.8 248C107.3 229 85.7 189 64.2 201C42.7 213 21.3 277 10.7 309L0 341Z" fill="#e032be"></path><path d="M0 385L10.7 364C21.3 343 42.7 301 64.2 291C85.7 281 107.3 303 128.8 314C150.3 325 171.7 325 193 319C214.3 313 235.7 301 257 305C278.3 309 299.7 329 321.2 325C342.7 321 364.3 293 385.8 274C407.3 255 428.7 245 450 258C471.3 271 492.7 307 514.2 324C535.7 341 557.3 339 578.8 327C600.3 315 621.7 293 643 277C664.3 261 685.7 251 707 270C728.3 289 749.7 337 771.2 356C792.7 375 814.3 365 835.8 363C857.3 361 878.7 367 889.3 370L900 373L900 311L889.3 315C878.7 319 857.3 327 835.8 329C814.3 331 792.7 327 771.2 303C749.7 279 728.3 235 707 219C685.7 203 664.3 215 643 236C621.7 257 600.3 287 578.8 301C557.3 315 535.7 313 514.2 287C492.7 261 471.3 211 450 200C428.7 189 407.3 217 385.8 243C364.3 269 342.7 293 321.2 291C299.7 289 278.3 261 257 256C235.7 251 214.3 269 193 280C171.7 291 150.3 295 128.8 280C107.3 265 85.7 231 64.2 242C42.7 253 21.3 309 10.7 337L0 365Z" fill="#f725a1"></path><path d="M0 457L10.7 444C21.3 431 42.7 405 64.2 394C85.7 383 107.3 387 128.8 402C150.3 417 171.7 443 193 453C214.3 463 235.7 457 257 445C278.3 433 299.7 415 321.2 413C342.7 411 364.3 425 385.8 436C407.3 447 428.7 455 450 452C471.3 449 492.7 435 514.2 430C535.7 425 557.3 429 578.8 420C600.3 411 621.7 389 643 389C664.3 389 685.7 411 707 421C728.3 431 749.7 429 771.2 435C792.7 441 814.3 455 835.8 454C857.3 453 878.7 437 889.3 429L900 421L900 371L889.3 368C878.7 365 857.3 359 835.8 361C814.3 363 792.7 373 771.2 354C749.7 335 728.3 287 707 268C685.7 249 664.3 259 643 275C621.7 291 600.3 313 578.8 325C557.3 337 535.7 339 514.2 322C492.7 305 471.3 269 450 256C428.7 243 407.3 253 385.8 272C364.3 291 342.7 319 321.2 323C299.7 327 278.3 307 257 303C235.7 299 214.3 311 193 317C171.7 323 150.3 323 128.8 312C107.3 301 85.7 279 64.2 289C42.7 299 21.3 341 10.7 362L0 383Z" fill="#ff2b83"></path><path d="M0 493L10.7 481C21.3 469 42.7 445 64.2 433C85.7 421 107.3 421 128.8 434C150.3 447 171.7 473 193 480C214.3 487 235.7 475 257 463C278.3 451 299.7 439 321.2 440C342.7 441 364.3 455 385.8 465C407.3 475 428.7 481 450 480C471.3 479 492.7 471 514.2 465C535.7 459 557.3 455 578.8 442C600.3 429 621.7 407 643 409C664.3 411 685.7 437 707 446C728.3 455 749.7 447 771.2 452C792.7 457 814.3 475 835.8 475C857.3 475 878.7 457 889.3 448L900 439L900 419L889.3 427C878.7 435 857.3 451 835.8 452C814.3 453 792.7 439 771.2 433C749.7 427 728.3 429 707 419C685.7 409 664.3 387 643 387C621.7 387 600.3 409 578.8 418C557.3 427 535.7 423 514.2 428C492.7 433 471.3 447 450 450C428.7 453 407.3 445 385.8 434C364.3 423 342.7 409 321.2 411C299.7 413 278.3 431 257 443C235.7 455 214.3 461 193 451C171.7 441 150.3 415 128.8 400C107.3 385 85.7 381 64.2 392C42.7 403 21.3 429 10.7 442L0 455Z" fill="#ff4366"></path><path d="M0 535L10.7 520C21.3 505 42.7 475 64.2 465C85.7 455 107.3 465 128.8 478C150.3 491 171.7 507 193 516C214.3 525 235.7 527 257 518C278.3 509 299.7 489 321.2 485C342.7 481 364.3 493 385.8 499C407.3 505 428.7 505 450 508C471.3 511 492.7 517 514.2 512C535.7 507 557.3 491 578.8 475C600.3 459 621.7 443 643 451C664.3 459 685.7 491 707 497C728.3 503 749.7 483 771.2 488C792.7 493 814.3 523 835.8 526C857.3 529 878.7 505 889.3 493L900 481L900 437L889.3 446C878.7 455 857.3 473 835.8 473C814.3 473 792.7 455 771.2 450C749.7 445 728.3 453 707 444C685.7 435 664.3 409 643 407C621.7 405 600.3 427 578.8 440C557.3 453 535.7 457 514.2 463C492.7 469 471.3 477 450 478C428.7 479 407.3 473 385.8 463C364.3 453 342.7 439 321.2 438C299.7 437 278.3 449 257 461C235.7 473 214.3 485 193 478C171.7 471 150.3 445 128.8 432C107.3 419 85.7 419 64.2 431C42.7 443 21.3 467 10.7 479L0 491Z" fill="#ff6049"></path><path d="M0 589L10.7 584C21.3 579 42.7 569 64.2 568C85.7 567 107.3 575 128.8 575C150.3 575 171.7 567 193 566C214.3 565 235.7 571 257 574C278.3 577 299.7 577 321.2 576C342.7 575 364.3 573 385.8 568C407.3 563 428.7 555 450 555C471.3 555 492.7 563 514.2 567C535.7 571 557.3 571 578.8 567C600.3 563 621.7 555 643 557C664.3 559 685.7 571 707 573C728.3 575 749.7 567 771.2 568C792.7 569 814.3 579 835.8 579C857.3 579 878.7 569 889.3 564L900 559L900 479L889.3 491C878.7 503 857.3 527 835.8 524C814.3 521 792.7 491 771.2 486C749.7 481 728.3 501 707 495C685.7 489 664.3 457 643 449C621.7 441 600.3 457 578.8 473C557.3 489 535.7 505 514.2 510C492.7 515 471.3 509 450 506C428.7 503 407.3 503 385.8 497C364.3 491 342.7 479 321.2 483C299.7 487 278.3 507 257 516C235.7 525 214.3 523 193 514C171.7 505 150.3 489 128.8 476C107.3 463 85.7 453 64.2 463C42.7 473 21.3 503 10.7 518L0 533Z" fill="#ff7e2c"></path><path d="M0 601L10.7 601C21.3 601 42.7 601 64.2 601C85.7 601 107.3 601 128.8 601C150.3 601 171.7 601 193 601C214.3 601 235.7 601 257 601C278.3 601 299.7 601 321.2 601C342.7 601 364.3 601 385.8 601C407.3 601 428.7 601 450 601C471.3 601 492.7 601 514.2 601C535.7 601 557.3 601 578.8 601C600.3 601 621.7 601 643 601C664.3 601 685.7 601 707 601C728.3 601 749.7 601 771.2 601C792.7 601 814.3 601 835.8 601C857.3 601 878.7 601 889.3 601L900 601L900 557L889.3 562C878.7 567 857.3 577 835.8 577C814.3 577 792.7 567 771.2 566C749.7 565 728.3 573 707 571C685.7 569 664.3 557 643 555C621.7 553 600.3 561 578.8 565C557.3 569 535.7 569 514.2 565C492.7 561 471.3 553 450 553C428.7 553 407.3 561 385.8 566C364.3 571 342.7 573 321.2 574C299.7 575 278.3 575 257 572C235.7 569 214.3 563 193 564C171.7 565 150.3 573 128.8 573C107.3 573 85.7 565 64.2 566C42.7 567 21.3 577 10.7 582L0 587Z" fill="#ff9900"></path></svg>